<?xml version="1.0" encoding="utf-8"?>
<!-- Generator: Adobe Illustrator 21.0.2, SVG Export Plug-In . SVG Version: 6.00 Build 0)  -->
<!DOCTYPE svg PUBLIC "-//W3C//DTD SVG 1.1//EN" "http://www.w3.org/Graphics/SVG/1.1/DTD/svg11.dtd">
<svg version="1.1" xmlns="http://www.w3.org/2000/svg" xmlns:xlink="http://www.w3.org/1999/xlink" x="0px" y="0px"
	 viewBox="0 0 1496 613" style="enable-background:new 0 0 1496 613;" xml:space="preserve">
<style type="text/css">
	.st0{fill:#26A7DE;}
	.st1{fill:#E6E6E6;stroke:#4D4D4D;stroke-miterlimit:10;}
	.st2{fill:#009DDE;}
	.st3{fill:#7B98C2;stroke:#58595B;stroke-miterlimit:10;}
	.st4{fill:none;stroke:#231F20;stroke-width:0.5;stroke-miterlimit:10;}
	.st5{fill:#231F20;}
	.st6{fill:#5680C1;stroke:#5B5B5B;stroke-miterlimit:10;}
	.st7{fill:#F8AD40;stroke:#5B5B5B;stroke-miterlimit:10;}
	.st8{fill:#CDCDCD;}
	.st9{fill:#F8AD40;stroke:#58595B;stroke-miterlimit:10;}
	.st10{fill:none;stroke:#58595B;stroke-miterlimit:10;}
	.st11{fill:#7B98C2;}
	.st12{fill:none;stroke:#6D6E70;stroke-miterlimit:10;}
	.st13{fill:#F8AD40;}
	.st14{fill:none;stroke:#58595B;stroke-linecap:round;stroke-miterlimit:10;}
	.st15{fill:none;stroke:#58595B;stroke-width:0.5;stroke-linecap:round;stroke-miterlimit:10;}
	.st16{fill:none;stroke:#F8AD40;stroke-width:4;stroke-miterlimit:10;}
	.st17{fill:#00ABEC;stroke:#58595B;stroke-linecap:round;stroke-miterlimit:10;}
	.st18{fill:#FFFFFF;stroke:#58595B;stroke-linecap:round;stroke-miterlimit:10;}
	.st19{fill:#FFFFFF;}
	.st20{fill:#EFEFF0;}
	.st21{fill:none;stroke:#58595B;stroke-width:0.5;stroke-miterlimit:10;}
	.st22{fill:none;}
	.st23{font-family:'HelveticaNeue';}
	.st24{font-size:20px;}
	.st25{fill:#58595B;}
	.st26{font-family:'HelveticaNeue-Bold';}
	.st27{font-size:30px;}
	.st28{font-family:'Helvetica';}
	.st29{font-size:17px;}
	.st30{fill:none;stroke:#009DDE;stroke-width:1.4173;stroke-linecap:round;stroke-miterlimit:10;}
	.st31{fill:none;stroke:#5680C0;stroke-width:2;stroke-miterlimit:10;}
	.st32{fill:none;stroke:#4D4D4D;stroke-linecap:round;stroke-miterlimit:10;}
	.st33{fill:#7B98C2;stroke:#58595B;stroke-width:2;stroke-miterlimit:10;}
	.st34{clip-path:url(#SVGID_2_);fill:#E6E6E6;}
	.st35{clip-path:url(#SVGID_2_);}
	.st36{fill:#FFFFFF;stroke:#58595B;stroke-miterlimit:10;}
	.st37{fill:#96F4FF;fill-opacity:0.3;}
	.st38{fill:#C88835;}
	.st39{fill:none;stroke:#FFEF00;stroke-miterlimit:10;}
	.st40{fill:none;stroke:#7B98C2;stroke-miterlimit:10;}
	.st41{fill:#26A7DE;fill-opacity:0.3;stroke:#00ABEC;stroke-miterlimit:10;}
	.st42{fill:none;stroke:#4D4D4D;stroke-miterlimit:10;}
	.st43{fill:none;stroke:#F8AD40;stroke-width:2;stroke-miterlimit:10;}
	.st44{fill:#009DDE;stroke:#58595B;stroke-miterlimit:10;}
	.st45{fill:#F8AD40;stroke:#F8AD40;stroke-width:1.4173;stroke-linecap:round;stroke-linejoin:round;stroke-miterlimit:10;}
	.st46{fill:#5680C1;}
	.st47{fill:#FCFCFC;}
	.st48{fill:none;stroke:#231F20;stroke-miterlimit:10;}
	.st49{fill:#4D4D4D;}
	.st50{clip-path:url(#SVGID_4_);fill:#CDCDCD;}
	.st51{clip-path:url(#SVGID_4_);}
	.st52{fill:none;stroke:#58595B;stroke-width:0.5669;stroke-miterlimit:10;}
	.st53{fill:none;stroke:#58595B;stroke-width:1.4173;stroke-linecap:round;stroke-linejoin:round;stroke-miterlimit:10;}
	.st54{fill:#CDCDCD;stroke:#4D4D4D;stroke-miterlimit:10;}
	.st55{clip-path:url(#SVGID_6_);fill:#CDCDCD;}
	.st56{clip-path:url(#SVGID_6_);}
	.st57{clip-path:url(#SVGID_14_);}
	.st58{clip-path:url(#SVGID_18_);}
	.st59{clip-path:url(#SVGID_24_);}
	.st60{fill:none;stroke:#58595B;stroke-width:2;stroke-miterlimit:10;}
</style>
<g id="Layer_2">
	<rect x="0" class="st0" width="1496" height="613"/>
</g>
<g id="Layer_1">
	<polyline class="st1" points="678.9,139.9 960.7,139.9 960.7,427.4 538.5,427.4 538.5,139.9 603.5,139.9 	"/>
	<rect x="993.9" y="139.9" class="st1" width="422.2" height="287.5"/>
	<path class="st2" d="M931.1,209.1l-2.8-3.1c-0.2-0.2,0-0.5,0.4-0.5h0.9c0.2,0,0.4-0.1,0.4-0.3v-28.3c0-0.2,0.2-0.3,0.4-0.3h1.9
		c0.2,0,0.4,0.1,0.4,0.3v28.3c0,0.2,0.2,0.3,0.4,0.3h0.9c0.3,0,0.6,0.3,0.4,0.5l-2.8,3.1C931.7,209.3,931.3,209.3,931.1,209.1z"/>
	<path class="st3" d="M1369.6,351.6H1338c-2.7,0-4.9-2.2-4.9-4.9V206.5c0-2.7,2.2-4.9,4.9-4.9h31.6c2.7,0,4.9,2.2,4.9,4.9v140.2
		C1374.5,349.4,1372.3,351.6,1369.6,351.6z"/>
	<g>
		<polygon class="st4" points="659.7,146.6 627.3,146.6 621.9,156.2 654.3,156.2 		"/>
		<g>
			<path class="st5" d="M633.7,148.3h0.9v2.8h1.1v-2.8h0.9v6.5h-0.9v-2.9h-1.1v2.9h-0.9V148.3z"/>
			<path class="st5" d="M637.6,148.3h2.7v0.9h-1.8v1.9h1.5v0.9h-1.5v1.9h1.8v0.9h-2.7V148.3z"/>
			<path class="st5" d="M641,148.3h1.4c1.1,0,1.6,0.6,1.6,1.9c0,0.7-0.2,1.3-0.8,1.6l1,3h-0.9l-0.8-2.8h-0.5v2.8H641V148.3z
				 M641.9,151.2h0.5c0.3,0,0.5-0.1,0.6-0.3c0.1-0.2,0.1-0.4,0.1-0.7c0-0.3,0-0.6-0.1-0.8c-0.1-0.2-0.3-0.3-0.6-0.3h-0.5V151.2z"/>
			<path class="st5" d="M644.8,149.9c0-0.5,0.2-0.9,0.5-1.2c0.3-0.3,0.6-0.4,1-0.4c0.4,0,0.7,0.1,1,0.4c0.3,0.3,0.5,0.7,0.5,1.2v3.4
				c0,0.5-0.2,0.9-0.5,1.2c-0.3,0.3-0.6,0.4-1,0.4c-0.4,0-0.7-0.1-1-0.4c-0.3-0.3-0.5-0.7-0.5-1.2V149.9z M645.7,153.3
				c0,0.2,0.1,0.4,0.2,0.5c0.1,0.1,0.3,0.2,0.4,0.2c0.2,0,0.3-0.1,0.4-0.2c0.1-0.1,0.2-0.3,0.2-0.5v-3.4c0-0.2-0.1-0.4-0.2-0.5
				c-0.1-0.1-0.3-0.2-0.4-0.2c-0.2,0-0.3,0-0.4,0.2c-0.1,0.1-0.2,0.3-0.2,0.5V153.3z"/>
		</g>
	</g>
	<g>
		<g>
			<path class="st6" d="M1019.2,335.7c0-46.1,0-92.1,0-138.2c0.6-0.3,0.5-0.8,0.5-1.3c0.5-7.4,1.3-14.8,2.6-22.1
				c1-6,2.2-11.9,5-17.4c2.4-4.6,6.1-7,11.3-7c5.6,0,10.7-2.4,16-3.6c3.4,0,6.8,0,10.3,0c5.9,1.2,9.6,5.2,12.5,10.1
				c1,1.6,2,3.2,3,4.8c4.5,7.8,9.1,15.7,13.4,23.6c2.7,4.8,6.8,7,12,7.6c1.5,0.2,3-0.1,4.5,0c7.8,0.6,13.1-2.6,16.8-9.5
				c4.5-8.5,9.5-16.8,14.4-25.1c3-5.1,6.5-9.8,12.8-11.3c3.4,0,6.8,0,10.3,0c0.7,0.9,1.7,0.6,2.6,0.7c5.4,0.9,10.5,3.2,16.2,3.1
				c3.1-0.1,5.8,2,7.7,4.6c1.5,2.1,2.5,4.4,3.4,6.9c2.6,7.7,3.6,15.8,4.6,23.8c0.6,4.4,0.4,9,1.5,13.3c0,45.7,0,91.4,0,137.1
				c-0.6,0.3-0.5,0.9-0.5,1.3c-1.2,6.8-2.3,13.7-3.6,20.5c-1.8,9.6-3.7,19.1-7.1,28.3c-0.8,2.2-1.6,4.7-3.6,6.1
				c-1.4,1-2.2,2.3-3,3.7c-5.5,10.3-13.6,17.3-25.1,20.3c-9.1,2.4-18.4,3.9-27.7,5.1c-4,0.5-8.1,0.4-12.1,1.5c-5.5,0-11,0-16.4,0
				c-0.6-0.8-1.4-0.5-2.1-0.5c-10.4-1-20.7-2.4-30.9-4.4c-14.7-2.9-26-10-32.4-24c-0.2-0.4-0.3-0.9-0.7-1.1
				c-3.7-2.1-4.6-5.8-5.8-9.4c-3.7-11.1-5.6-22.5-7.8-34C1020.9,344.7,1020.7,340.1,1019.2,335.7z M1095.9,190.9
				c-0.8,1.1-0.5,2.2-0.5,3.3c-0.3,35.8-0.6,71.5-0.9,107.3c-0.2,25.4-0.5,50.8-0.8,76.2c0,1.8,0,2.7,2.5,2.4
				c9.2-1.1,18.4-1.1,27.6,0c2,0.2,2.4-0.3,2.3-2c-0.2-6-0.2-12-0.3-18c-0.4-51.9-0.8-103.9-1.3-155.8c0-3.9-0.1-7.9-0.1-11.8
				c0-1.4-0.4-1.8-1.8-1c-1.4,0.8-2.9,1.5-4.5,1.9C1110.4,195.2,1102.9,195,1095.9,190.9z M1155.1,210.8c-0.2,0.4-0.3,0.6-0.3,0.9
				c-0.7,11.9-1.4,23.9-2.1,35.8c-0.6,9.6-1.1,19.1-1.7,28.7c-0.8,13.5-1.6,27-2.4,40.4c-0.6,10.1-1.2,20.1-1.9,30.2
				c-0.1,1.7,0.3,2.7,1.6,3.7c12.2,8.9,24.4,17.9,36.6,26.9c0.6,0.4,1.2,1.3,2,0.8c0.7-0.4,0.7-1.3,0.7-2.1c0-0.8,0-1.5,0-2.3
				c0-13.3-0.1-26.7,0.1-40c0.1-5.7-0.3-11.2-2-16.7c-0.6-1.9-1-3.8-1.5-5.7c-8.5-33-16.2-66.2-27.7-98.4
				C1156.2,212.3,1156.3,211.4,1155.1,210.8z M1032.1,350.9c0,8.2,0,16.4,0,24.6c0,1-0.1,2.1,0.7,2.6c0.7,0.6,1.4-0.3,2-0.7
				c12.3-9,24.5-18.1,36.8-27.1c1.3-0.9,1.6-1.9,1.5-3.5c-0.9-13.1-1.6-26.1-2.4-39.2c-0.6-10-1.1-20-1.7-30
				c-0.8-13.3-1.6-26.6-2.4-39.9c-0.5-8.5-1-17.1-1.5-25.6c0-0.5,0.2-1.2-0.5-1.3c-0.9-0.2-0.8,0.7-1,1.2c-0.6,1.8-1.1,3.6-1.7,5.4
				c-9.2,29.1-16.6,58.7-24.8,88.1c-3.7,13.4-5.8,26.8-4.9,40.7C1032.2,347.8,1032.1,349.4,1032.1,350.9z M1109.4,381.3
				c-5.2-0.2-10.9,0.1-16.4,1.1c-9.7,1.7-18.4,5-23.9,13.9c-2.6,4.1-5.6,8-8.3,12c-2.8,4-2.7,4.1,1.9,5.4c10.4,3.1,21,4.6,31.7,5.6
				c6.5,0.6,13.1,1.5,19.7,0.9c6.6-0.6,13.1-1,19.6-1.9c8.6-1.2,17.2-2.7,25.5-5.3c1.8-0.6,2.4-1.1,1.1-2.9
				c-3.5-4.8-7-9.7-10.3-14.7c-4-6.3-9.9-9.7-16.9-11.7C1125.6,381.7,1117.8,381.2,1109.4,381.3z M1167.1,238.9
				c0.2,0,0.4-0.1,0.6-0.1c-1.5-21.2-3-42.4-4.5-63.9c-0.5,0.4-0.7,0.5-0.8,0.8c-4.5,8.8-6.9,18.1-5.6,28
				C1158.3,215.9,1164.1,227,1167.1,238.9z M1052.5,239.4c0.1,0.1,0.2,0.1,0.3,0.2c0.3-0.8,0.6-1.6,0.8-2.4c2.3-7.6,4.6-15.2,7-22.8
				c1.2-3.7,2.1-7.4,2.5-11.2c0.9-10-1.5-19.3-6.5-28C1055.2,196.6,1053.9,218,1052.5,239.4z"/>
			<path class="st7" d="M1095.9,190.9c7.1,4.1,14.6,4.3,22.3,2.5c1.6-0.4,3.1-1.1,4.5-1.9c1.4-0.8,1.8-0.4,1.8,1
				c0,3.9,0.1,7.9,0.1,11.8c0.4,51.9,0.8,103.9,1.3,155.8c0,6,0.1,12,0.3,18c0,1.8-0.3,2.3-2.3,2c-9.2-1.1-18.4-1.1-27.6,0
				c-2.4,0.3-2.5-0.6-2.5-2.4c0.3-25.4,0.6-50.8,0.8-76.2c0.3-35.8,0.6-71.5,0.9-107.3C1095.3,193.1,1095.1,192,1095.9,190.9z"/>
			<path class="st7" d="M1155.1,210.8c1.1,0.6,1.1,1.5,1.4,2.3c11.5,32.2,19.2,65.4,27.7,98.4c0.5,1.9,0.9,3.8,1.5,5.7
				c1.7,5.4,2.1,11,2,16.7c-0.2,13.3-0.1,26.7-0.1,40c0,0.8,0,1.5,0,2.3c0,0.8,0,1.7-0.7,2.1c-0.8,0.4-1.4-0.4-2-0.8
				c-12.2-9-24.4-18-36.6-26.9c-1.3-1-1.7-2-1.6-3.7c0.7-10.1,1.3-20.1,1.9-30.2c0.8-13.5,1.6-27,2.4-40.4
				c0.6-9.6,1.1-19.1,1.7-28.7c0.7-11.9,1.4-23.9,2.1-35.8C1154.8,211.4,1155,211.2,1155.1,210.8z"/>
			<path class="st7" d="M1032.1,350.9c0-1.5,0.1-3.1,0-4.6c-0.8-13.9,1.2-27.3,4.9-40.7c8.2-29.4,15.6-59,24.8-88.1
				c0.6-1.8,1.1-3.6,1.7-5.4c0.2-0.5,0.1-1.4,1-1.2c0.7,0.1,0.5,0.8,0.5,1.3c0.5,8.5,1,17.1,1.5,25.6c0.8,13.3,1.6,26.6,2.4,39.9
				c0.6,10,1.1,20,1.7,30c0.8,13.1,1.5,26.1,2.4,39.2c0.1,1.5-0.2,2.5-1.5,3.5c-12.3,9-24.5,18.1-36.8,27.1c-0.6,0.4-1.3,1.3-2,0.7
				c-0.7-0.6-0.7-1.7-0.7-2.6C1032.1,367.4,1032.1,359.1,1032.1,350.9z"/>
			<path class="st7" d="M1109.4,381.3c8.3-0.1,16.1,0.4,23.8,2.6c6.9,2,12.8,5.4,16.9,11.7c3.2,5,6.7,9.9,10.3,14.7
				c1.3,1.8,0.7,2.3-1.1,2.9c-8.3,2.6-16.9,4.1-25.5,5.3c-6.5,0.9-13.1,1.3-19.6,1.9c-6.6,0.6-13.2-0.3-19.7-0.9
				c-10.7-1-21.3-2.5-31.7-5.6c-4.7-1.4-4.7-1.4-1.9-5.4c2.7-4,5.8-7.9,8.3-12c5.5-9,14.3-12.3,23.9-13.9
				C1098.6,381.5,1104.2,381.2,1109.4,381.3z"/>
			<path class="st8" d="M1167.1,238.9c-2.9-11.9-8.7-23-10.3-35.3c-1.3-9.9,1.2-19.2,5.6-28c0.1-0.2,0.4-0.3,0.8-0.8
				c1.5,21.5,3,42.7,4.5,63.9C1167.5,238.9,1167.3,238.9,1167.1,238.9z"/>
			<path class="st8" d="M1052.5,239.4c1.4-21.4,2.7-42.9,4.1-64.3c5.1,8.8,7.5,18,6.5,28c-0.4,3.8-1.4,7.6-2.5,11.2
				c-2.4,7.6-4.7,15.2-7,22.8c-0.3,0.8-0.6,1.6-0.8,2.4C1052.7,239.5,1052.6,239.5,1052.5,239.4z"/>
		</g>
	</g>
	<rect x="1088.6" y="237.9" class="st9" width="42.8" height="133.4"/>
	<polyline class="st10" points="1101.1,366.9 1101.1,246.5 1101.1,244.9 1087.4,237.9 	"/>
	<line class="st10" x1="1101.1" y1="366.9" x2="1088.6" y2="371.3"/>
	<polyline class="st10" points="1117.1,366.9 1117.1,246.5 1117.1,244.9 1130.8,237.9 	"/>
	<line class="st10" x1="1117.1" y1="366.9" x2="1129.6" y2="371.3"/>
	<rect x="82.4" y="439.4" class="st22" width="424.8" height="87.6"/>
	<text transform="matrix(1 0 0 1 82.4302 453.6372)"><tspan x="0" y="0" class="st19 st23 st24">1. Place the bottom of the bottle into the water. </tspan><tspan x="0" y="24" class="st19 st23 st24">Untwist handle and pull up to draw water into </tspan><tspan x="0" y="48" class="st19 st23 st24">the bottle. </tspan></text>
	<g>
		<rect x="540" y="439.4" class="st22" width="424.8" height="121.6"/>
		<text transform="matrix(1 0 0 1 539.9863 453.6372)"><tspan x="0" y="0" class="st19 st23 st24">2. When filled with water, push the handle back </tspan><tspan x="0" y="24" class="st19 st23 st24">down and twist to lock into place. The elastic </tspan><tspan x="0" y="48" class="st19 st23 st24">silicone band inside the bottle pulls the plunger </tspan><tspan x="0" y="72" class="st19 st23 st24">down, applying pressure onto the water. </tspan><tspan x="0" y="96" class="st19 st23 st24">Water pressure! </tspan></text>
	</g>
	<rect x="992.2" y="439.4" class="st22" width="424.8" height="105.6"/>
	<text transform="matrix(1 0 0 1 992.207 453.6372)"><tspan x="0" y="0" class="st19 st23 st24">3. Drop the bottle back into the HeroPak and </tspan><tspan x="0" y="24" class="st19 st23 st24">twist onto their filter. Water will then flow into </tspan><tspan x="0" y="48" class="st19 st23 st24">the filter from the water pressure. </tspan></text>
	<g>
		<rect x="81.4" y="87.3" class="st22" width="330.5" height="28.1"/>
		<text transform="matrix(1 0 0 1 81.4299 108.6777)" class="st19 st26 st27">Using the Hero Bottle</text>
	</g>
	<g>
		<path class="st11" d="M678.9,413.7c0,2-1.6,3.6-3.6,3.6h-68.2c-2,0-3.6-1.6-3.6-3.6V217.8c0-2,1.6-3.6,3.6-3.6h68.2
			c2,0,3.6,1.6,3.6,3.6V413.7z"/>
		<path class="st10" d="M678.9,413.7c0,2-1.6,3.6-3.6,3.6h-68.2c-2,0-3.6-1.6-3.6-3.6V217.8c0-2,1.6-3.6,3.6-3.6h68.2
			c2,0,3.6,1.6,3.6,3.6V413.7z"/>
	</g>
	<g>
		<path class="st11" d="M675.8,409.7c0,2-1.6,3.6-3.6,3.6h-62.1c-2,0-3.6-1.6-3.6-3.6V221.9c0-2,1.6-3.6,3.6-3.6h62.1
			c2,0,3.6,1.6,3.6,3.6V409.7z"/>
		<path class="st10" d="M675.8,409.7c0,2-1.6,3.6-3.6,3.6h-62.1c-2,0-3.6-1.6-3.6-3.6V221.9c0-2,1.6-3.6,3.6-3.6h62.1
			c2,0,3.6,1.6,3.6,3.6V409.7z"/>
	</g>
	<g>
		<path class="st0" d="M675.8,409.7c0,2-1.6,3.6-3.6,3.6h-62.1c-2,0-3.6-1.6-3.6-3.6V278.1c0-2,1.6-3.6,3.6-3.6h62.1
			c2,0,3.6,1.6,3.6,3.6V409.7z"/>
		<path class="st10" d="M675.8,409.7c0,2-1.6,3.6-3.6,3.6h-62.1c-2,0-3.6-1.6-3.6-3.6V278.1c0-2,1.6-3.6,3.6-3.6h62.1
			c2,0,3.6,1.6,3.6,3.6V409.7z"/>
	</g>
	<rect x="606.8" y="206" class="st3" width="69" height="8.2"/>
	<rect x="629.5" y="397.5" class="st3" width="23.8" height="15.8"/>
	<path class="st3" d="M646.7,182.7c0,0-1.4,1.2-2.8,0.5c-1.4-0.8-2-2.3-4.2-2.5c-1.9-0.2-4.1,2.1-4.1,2.1v0v-37.2h11V182.7
		L646.7,182.7z"/>
	<g>
		<g>
			<path class="st11" d="M678.9,154.8c0,2-1.6,3.6-3.6,3.6h-68.2c-2,0-3.6-1.6-3.6-3.6v-33.9c0-2,1.6-3.6,3.6-3.6h68.2
				c2,0,3.6,1.6,3.6,3.6V154.8z M673.4,125.9c0-2-1.6-3.6-3.6-3.6H613c-2,0-3.6,1.6-3.6,3.6V140c0,2,1.6,3.6,3.6,3.6h56.8
				c2,0,3.6-1.6,3.6-3.6V125.9z"/>
		</g>
		<g>
			<path class="st10" d="M678.9,154.8c0,2-1.6,3.6-3.6,3.6h-68.2c-2,0-3.6-1.6-3.6-3.6v-33.9c0-2,1.6-3.6,3.6-3.6h68.2
				c2,0,3.6,1.6,3.6,3.6V154.8z M673.4,125.9c0-2-1.6-3.6-3.6-3.6H613c-2,0-3.6,1.6-3.6,3.6V140c0,2,1.6,3.6,3.6,3.6h56.8
				c2,0,3.6-1.6,3.6-3.6V125.9z"/>
		</g>
	</g>
	<g>
		<path class="st11" d="M899.6,413.7c0,2-1.6,3.6-3.6,3.6h-68.2c-2,0-3.6-1.6-3.6-3.6V217.8c0-2,1.6-3.6,3.6-3.6H896
			c2,0,3.6,1.6,3.6,3.6V413.7z"/>
		<path class="st10" d="M899.6,413.7c0,2-1.6,3.6-3.6,3.6h-68.2c-2,0-3.6-1.6-3.6-3.6V217.8c0-2,1.6-3.6,3.6-3.6H896
			c2,0,3.6,1.6,3.6,3.6V413.7z"/>
	</g>
	<g>
		<path class="st11" d="M896.5,409.7c0,2-1.6,3.6-3.6,3.6h-62.1c-2,0-3.6-1.6-3.6-3.6V221.9c0-2,1.6-3.6,3.6-3.6h62.1
			c2,0,3.6,1.6,3.6,3.6V409.7z"/>
		<path class="st10" d="M896.5,409.7c0,2-1.6,3.6-3.6,3.6h-62.1c-2,0-3.6-1.6-3.6-3.6V221.9c0-2,1.6-3.6,3.6-3.6h62.1
			c2,0,3.6,1.6,3.6,3.6V409.7z"/>
	</g>
	<g>
		<path class="st0" d="M896.5,409.7c0,2-1.6,3.6-3.6,3.6h-62.1c-2,0-3.6-1.6-3.6-3.6V244.6c0-2,1.6-3.6,3.6-3.6h62.1
			c2,0,3.6,1.6,3.6,3.6V409.7z"/>
		<path class="st12" d="M896.5,409.7c0,2-1.6,3.6-3.6,3.6h-62.1c-2,0-3.6-1.6-3.6-3.6V244.6c0-2,1.6-3.6,3.6-3.6h62.1
			c2,0,3.6,1.6,3.6,3.6V409.7z"/>
	</g>
	<rect x="850.2" y="397.5" class="st3" width="23.8" height="15.8"/>
	<rect x="827.5" y="206" class="st17" width="69" height="8.2"/>
	<g>
		<path class="st11" d="M863.8,392.2c2,0,3.6-1.6,3.6-3.6V205.1c0-2-1.6-3.6-3.6-3.6H860c-2,0-3.6,1.6-3.6,3.6v183.6
			c0,2,1.6,3.6,3.6,3.6H863.8z"/>
		<path class="st10" d="M863.8,392.2c2,0,3.6-1.6,3.6-3.6V205.1c0-2-1.6-3.6-3.6-3.6H860c-2,0-3.6,1.6-3.6,3.6v183.6
			c0,2,1.6,3.6,3.6,3.6H863.8z"/>
	</g>
	<g>
		<g>
			<path class="st11" d="M899.6,210.9c0,2-1.6,3.6-3.6,3.6h-68.2c-2,0-3.6-1.6-3.6-3.6V177c0-2,1.6-3.6,3.6-3.6H896
				c2,0,3.6,1.6,3.6,3.6V210.9z M891.5,178.4h-58.8c-1.5,0-2.6,1.2-2.6,2.6v16.1c0,1.5,1.2,2.6,2.6,2.6h58.8c1.5,0,2.6-1.2,2.6-2.6
				V181C894.1,179.5,892.9,178.4,891.5,178.4z"/>
		</g>
		<g>
			<path class="st10" d="M899.6,210.9c0,2-1.6,3.6-3.6,3.6h-68.2c-2,0-3.6-1.6-3.6-3.6V177c0-2,1.6-3.6,3.6-3.6H896
				c2,0,3.6,1.6,3.6,3.6V210.9z M891.5,178.4h-58.8c-1.5,0-2.6,1.2-2.6,2.6v16.1c0,1.5,1.2,2.6,2.6,2.6h58.8c1.5,0,2.6-1.2,2.6-2.6
				V181C894.1,179.5,892.9,178.4,891.5,178.4z"/>
		</g>
	</g>
	<g>
		<g>
			<path class="st11" d="M1374.5,200.9c0,0.4-0.3,0.7-0.7,0.7h-39.9c-0.4,0-0.7-0.3-0.7-0.7v-18c0-1.1,0.9-1.9,1.9-1.9h37.5
				c1.1,0,1.9,0.9,1.9,1.9V200.9z M1368.9,183.5h-29.9c-0.6,0-1.1,0.5-1.1,1.1v8.5c0,0.6,0.5,1.1,1.1,1.1h29.9
				c0.6,0,1.1-0.5,1.1-1.1v-8.5C1370,183.9,1369.5,183.5,1368.9,183.5z"/>
		</g>
		<g>
			<path class="st10" d="M1374.5,200.9c0,0.4-0.3,0.7-0.7,0.7h-39.9c-0.4,0-0.7-0.3-0.7-0.7v-18c0-1.1,0.9-1.9,1.9-1.9h37.5
				c1.1,0,1.9,0.9,1.9,1.9V200.9z M1368.9,183.5h-29.9c-0.6,0-1.1,0.5-1.1,1.1v8.5c0,0.6,0.5,1.1,1.1,1.1h29.9
				c0.6,0,1.1-0.5,1.1-1.1v-8.5C1370,183.9,1369.5,183.5,1368.9,183.5z"/>
		</g>
	</g>
	<rect x="706" y="259.2" class="st22" width="100" height="120.8"/>
	<text transform="matrix(1 0 0 1 706 271.4512)"><tspan x="0" y="0" class="st25 st28 st29">Elastic band </tspan><tspan x="0" y="20.4" class="st25 st28 st29">pulls plunger </tspan><tspan x="0" y="40.8" class="st25 st28 st29">down</tspan></text>
	<g>
		<path class="st30" d="M944.7,199.7c3.4,1.3,5.5,3.1,5.6,5.2c0,4.1-8.2,7.4-18.4,7.5c-10.2,0.1-18.5-3.1-18.6-7.2
			c0-2.1,2.3-4.1,5.9-5.5"/>
		<line class="st30" x1="919.2" y1="199.7" x2="916.8" y2="204.3"/>
		<line class="st30" x1="919.2" y1="199.7" x2="913.2" y2="199.8"/>
	</g>
	<path class="st2" d="M568.8,216.9l2.8,4.3c0.2,0.3,0,0.7-0.4,0.7h-0.9c-0.2,0-0.4,0.2-0.4,0.4v38.9c0,0.2-0.2,0.4-0.4,0.4h-1.9
		c-0.2,0-0.4-0.2-0.4-0.4v-38.9c0-0.2-0.2-0.4-0.4-0.4h-0.9c-0.3,0-0.6-0.4-0.4-0.7l2.8-4.3C568.2,216.6,568.6,216.6,568.8,216.9z"
		/>
	<g>
		<path class="st30" d="M555.1,214.4c-3.4-1.3-5.5-3.1-5.6-5.2c0-4.1,8.2-7.4,18.4-7.5c10.2-0.1,18.5,3.1,18.6,7.2
			c0,2.1-2.3,4.1-5.9,5.5"/>
		<line class="st30" x1="555.4" y1="214.3" x2="553" y2="209.8"/>
		<line class="st30" x1="555.4" y1="214.3" x2="549.4" y2="214.3"/>
	</g>
	<rect x="1088.6" y="373.1" class="st31" width="42.8" height="7.1"/>
	<path class="st32" d="M757,307.5l43.3,0.1c2,0,4-0.7,5.6-2l30.9-25.6"/>
	<g>
		<defs>
			<rect id="SVGID_1_" x="82.4" y="139.3" width="422.2" height="287.5"/>
		</defs>
		<clipPath id="SVGID_2_">
			<use xlink:href="#SVGID_1_"  style="overflow:visible;"/>
		</clipPath>
		<rect x="82.4" y="139.3" class="st34" width="422.2" height="287.5"/>
		<g class="st35">
			<line class="st14" x1="371.2" y1="399.3" x2="371" y2="402"/>
			<g>
				<path class="st14" d="M399.5,402.4c0,0-8,2.2-22.1-7.5"/>
				<line class="st14" x1="377.4" y1="395" x2="377.2" y2="397.7"/>
				<line class="st14" x1="377.4" y1="395" x2="380.3" y2="395.1"/>
				<path class="st14" d="M389.1,415.5c0,0-5.9-4.8-18-16.2"/>
				<line class="st14" x1="371.2" y1="399.3" x2="374.1" y2="399.5"/>
				<path class="st14" d="M372.8,419.8c0,0,4.7-3.3-7.5-16.2"/>
				<line class="st14" x1="365.3" y1="403.6" x2="365.1" y2="406.4"/>
				<line class="st14" x1="365.3" y1="403.6" x2="368.2" y2="403.8"/>
			</g>
		</g>
		<g class="st35">
			<path class="st18" d="M287.2,127c0,0,81.1,135.8,81,144.6c-0.1,8.9-1.4,23.1-11.4,26.1c-9.9,3-9.6,3.7-9.6,3.7l-53.8-32.3
				L108.1,124.8"/>
			<path class="st36" d="M333.5,306.4c0.8,0,1.8,1.1,1.8,1.1s4.4,6.7,4.9,7.2c0.5,0.6,1.6,3,2.6,3.7c0.9,0.6,1.1,1.4,1.1,1.4
				c-1.7,5.6,4.9,15.1,4.9,15.1l4.1-0.2l1.8-1.2l-1.2-8.5l1.8-9.8l-4.7-6.3c0,0-3.6-7.8-3.7-8.2c-0.1-0.3-2.4-6.8-2.4-6.8l-2.2-4.1
				l-1.4-4.3c0,0-5.1-8.9-7.1-13.9c-2.1-5,1-17.8,1-17.8l-35.8-4c0,0-2.4,18.3-5.6,19.4"/>
			<path class="st36" d="M336.1,264.5c-0.4,16.4-50.1,7.6-43.5-7.7"/>
			<path class="st36" d="M240.4,210.8c0,0-0.2,38.6-0.3,42.2c-0.1,2.7-2.8,9.5-4.1,12.7c-0.4,1-0.7,1.7-0.7,1.7l-9.1,6.6l-12.5,3.2
				l-21.4-3.1l-8.7-14.9c-0.3-2.2-0.8-6.4-0.4-6.7c0.5-0.4,1.4-7,1.4-7l-2.7-14.2l1.8-6l-3.3-9.9l-0.8-7.8l-3.6-4.8l0.2-4.6
				l-8.2-27.5"/>
			<g>
				<path class="st3" d="M223.2,218.7l14.6,21.4c0,0,1,2.8,6.4,2.9c5.4,0,35.2-9.3,36.3-30.1L262.2,186l-2.6-0.8l-6,2.5"/>
				<path class="st3" d="M226.2,220.2l4.2,4.9l2.2,2.7c0,0,0.1,0.6,3.1,0.8c3,0.2,30.9-9.7,34.4-25.4l-6.3-9.1c0,0-1.3-1.6-2-0.9
					c-0.7,0.7-0.9,0.8-0.9,0.8"/>
			</g>
			<path class="st3" d="M274.4,298.3l64.9,96.7c5.2,7.7,17.3,8.8,27,2.3c9.8-6.5,13.5-18,8.3-25.8l-23.5-36.7l-7.4-11.5l-32-49.8"/>
			<path class="st3" d="M273.4,293.4c-0.2,1.8,0.1,3.5,1,4.9c3.5,5.2,14.7,3.9,25-2.9c10.3-6.9,15.9-16.7,12.4-21.9
				c-1-1.4-2.5-2.4-4.5-2.9"/>
			<path class="st37" d="M360.5,379.1L338,344.5l-0.1,0c-1.4,1.2-2.8,2.3-4.5,3.4c-2.4,1.6-4.6,2.7-6.7,3.9l0,0l23.1,34.6
				c0,0,0.4-0.1,0.5,0.2C350.7,389.6,363.9,392.2,360.5,379.1z"/>
			<g>
				<path class="st36" d="M306.5,347.7c0,0-4.6,2.6,2.4,5c0,0,5.7-1.5,3.5-3.7C309,345.6,306.5,347.7,306.5,347.7z"/>
				<path class="st36" d="M296.1,340.9c0,0,0.8,3.5,2.5,4.9c1.6,1.5,6.6,4.2,9,2c4.8-4.5-5.6-7.4-5.6-7.4"/>
				<path class="st36" d="M293.1,330.7c2.6,1.7,4.4,2.9,4.9,3.4c0,0,5.5,2.1,4.2,5.5c-0.4,1.1-2,1.7-2.2,1.8
					c-0.2,0.1-4.7-0.4-5.7-1.4c-1-1-2.5-4-3.4-4.2c-0.8-0.2-2.7-7.1-2.7-7.1"/>
				<path class="st36" d="M281.9,309.5c0,0-3,4.2-3,6.3c0.1,2.1,2.5,6.7,2.5,6.7l3.3,4.4c0,0,2.7,1.5,4.4,2.4c1.7,1,1.9,2.1,1.9,2.1
					s1.9-0.1,3.2-1.6c1.3-1.5-4.2-6.8-4.2-6.8s-6.2-5-2.5-3.6"/>
			</g>
			<path class="st13" d="M320.9,318.9l9.8,15c-5.8,5.6-10.7,7.2-10.7,7.2l-9.9-14.5c1.8-1.8,3.9-3.5,6.2-5
				C317.9,320.5,319.4,319.7,320.9,318.9"/>
			<path class="st38" d="M330.9,333.8c-1.6,1.5-3.4,2.9-5.4,4.3c-1.9,1.3-3.9,2.4-5.8,3.3l6.8,10.5c2.3-1,4.7-2.3,7.1-3.8
				c1.6-1.1,3.1-2.2,4.5-3.4L330.9,333.8z"/>
			<path class="st9" d="M302.9,308.8l13.1,20.6c0.6,0.9,2.6,0.5,4.5-0.8c1.9-1.3,3-3,2.5-3.9l-12.1-18.3
				C310.9,306.5,306.3,304.4,302.9,308.8z"/>
			<path class="st36" d="M183.5,259c0.1,0.9,0.2,1.4,0.2,1.4l-0.9,15.1c0,0,3.4,12.8,6.4,14.5c3,1.7,10.3,22.8,10.3,22.8
				s2.2,6.8,3.7,12.3c1.5,5.5,17.1,36.3,48.3,32.9c31.2-3.4,22.8-24.8,18.9-31.2S250.6,291,250.6,291L239,270.9l0-3.3l-3.8-0.4
				l-9.1,6.6l-12.5,3.2l-10.6-1.4l-5.8-1.4l-4.9-0.3l-4.9-7.4l-3-6.2"/>
			<path class="st3" d="M273.9,294.6c2.2,5.5,13.2,3.1,22.7-3.2c9.5-6.3,15.9-16,11.3-20"/>
			
				<ellipse transform="matrix(0.8325 -0.5541 0.5541 0.8325 -107.3301 207.7335)" class="st3" cx="289.9" cy="281.4" rx="20.5" ry="9.3"/>
			<path class="st3" d="M304.6,273c-2.2-3.3-10.2-1.7-18.1,3.5c-7.8,5.2-12.4,12-10.2,15.3c2.2,3.3,10.3,1.7,18.1-3.5
				C302.2,283.2,306.8,276.3,304.6,273z"/>
			<path class="st10" d="M302.6,315.9l47.1,70.5c1.9,2.8,5.8,3.5,8.8,1.6c3-2,3.8-5.9,2-8.7l-46.3-71.1c-1.9-2.8-6-3.4-9.2-1.3
				C301.8,309,300.7,313.1,302.6,315.9z"/>
			<path class="st9" d="M258,239.2l29.9,45.3c0.6,0.9,2.6,0.5,4.5-0.8c1.9-1.3,3-3,2.5-3.9L265.3,235"/>
			<path class="st10" d="M296,230.4c2.9-0.5,18.9-8.8,43.2,5.3"/>
			<path class="st36" d="M294.1,178.7L277.8,148c-6.3-12.6-7.6-14.7-7.6-14.7h61.6l0.8,6l13.3,40.5l-1.8,4c0,0-0.3,10.1-1.2,10.6
				c-0.9,0.5,2.9,1.8,2.7,4.1c-0.1,2.3-1.2,12.7-3.4,14.7c-2.1,2,0.3,2.2,0.4,2.9c0.1,0.7,0,4.1-1,3.9c-1-0.2,1,12.4,0.2,12.7
				c-0.5,0.2-2.3,2.4-3.3,3.8c-0.5,0.6-0.9,1.1-0.9,1.1s-1.3,23.5-1.6,26.8c0,0-42.6-10.7-44.2-5l4.4-26.3c0,0,0.3-3.1-1.1-4.1
				c-1.5-1-0.2-4.4,0.3-5.4c0.5-0.9-1.7-12.1-1.7-12.1s-2.3-7.5-2.2-10.3c0.1-2.9,1.8-21.2,1.8-21.2s3.6-7,8.1-6.7"/>
			<line class="st10" x1="341.4" y1="214.8" x2="316.1" y2="208.9"/>
			<path class="st10" d="M342.9,194.9c0,0-12.2-10.8-16.5-11.1"/>
			<path class="st10" d="M294.5,228.5c0,0,25-10.4,46.9,4.5"/>
			<path class="st41" d="M315.4,359.4l12.6,18.8l48.8,2.9l0,0.1c0.4-3.5-0.3-6.9-2.2-9.9l-9.7-15.1l1.9,0.3
				c15.1,0.2,37.7-7.9,42.4-11.7c5-4,38.5-35.4,38.5-35.4l33.6-27.2l30.5-37l19.7,14.1l-1.4,19c0,0-13.2,58-14.2,62
				c-1,4,8.5,86.4,8.5,86.4s-55.8,24.5-67.6,19.9c-11.9-4.6-93.8,19.6-100.2,21.4c-6.4,1.7-52-8.9-63-15.6
				c-11-6.7-73-25.4-76.1-31.4c-3.1-6-14.8-26.2-14.1-31.2c0.7-5,39.1-19.5,42.2-21.9c3.1-2.4,31.3-4.3,31.3-4.3
				S296.3,361.4,315.4,359.4"/>
			<path class="st36" d="M227.2,157.6l14.5,5.6l9.9,4.4l7.5,3.2l8.9,2.8l1.9,1.9l-0.4,2.1l1.3,3.4l1.2,5.5l0.5,1.7l5.2,6.9L277,196
				l-3,2.3l-3-1l-3.1-3.1l-5.5-7.3l-1.9-2.7l-2.6,0.6l-6.3-1.1l-0.1,2.2l3.4,2.9l5,4.7c0,0,1.9,2.9,2.2,3.3c0.2,0.4,1,3.2,1,3.2
				l0.9,3.2l-0.8,3.2l-1.3,3.4c0,0-2.7,0.3-3,0.5c-0.3,0.3-3.5,0.6-4.1,0.4c-0.6-0.2-11.9-9.9-11.9-9.9l9.6,9l-0.3,2.2l-0.7,2
				l-3,2.4l-3.4,0.5l-13.4-6.3c0,0,8.7,4.9,8,7.8c-0.8,2.9-2.4,6.3-5.4,5.9c-2.9-0.4-15.9-7.5-15.9-7.5s7.2,5.1,5.8,8.3
				c-1.4,3.2-4.5,3.9-6.1,3.2c-1.6-0.7-10.7-6.7-10.7-6.7s-15.7-19-15.7-23.5"/>
			<path class="st36" d="M199.2,140.8l34.3,15.9c0,0-39.3,50.3-39.6,48.2l-8.1-14.7l-6.2-5.7l-3-4.4l-3.7,1.2l-3.6-1.4l-1.2-1.9
				l-4.8,0.3l-12.4-3.4l-10.6-5.1l-20-18.6l-12-17.8l86.9,1.3L199.2,140.8z"/>
			<path class="st36" d="M200.1,141.3c-7.6,12.4-15.9,26.3-23.6,38.8"/>
			<path class="st36" d="M167.9,178c9.6-13.3,19.9-28.1,29.5-41.5"/>
		</g>
	</g>
	<rect x="82.4" y="139.3" class="st42" width="422.2" height="287.5"/>
	<path class="st43" d="M891.4,244.9c-3,0.6-4,4.8-4,4.8l-19.6,140c0,0-1.6,1.9-2.3,1.9h-6.8c-0.8,0-2.3-1.9-2.3-1.9l-19.6-140
		c0,0-1-4.2-4-4.8"/>
	<path class="st44" d="M1353.8,336.4L1353.8,336.4c-2.7,0-4.9-2.2-4.9-4.9V225.9c0-2.7,2.2-4.9,4.9-4.9l0,0c2.7,0,4.9,2.2,4.9,4.9
		v105.7C1358.7,334.2,1356.5,336.4,1353.8,336.4z"/>
	<g>
		<path class="st13" d="M896.5,242.6c0,2-1.6,3.6-3.6,3.6h-61.8c-2,0-3.6-1.6-3.6-3.6V230c0-2,1.6-3.6,3.6-3.6h61.8
			c2,0,3.6,1.6,3.6,3.6V242.6z"/>
		<path class="st14" d="M896.5,242.6c0,2-1.6,3.6-3.6,3.6h-61.8c-2,0-3.6-1.6-3.6-3.6V230c0-2,1.6-3.6,3.6-3.6h61.8
			c2,0,3.6,1.6,3.6,3.6V242.6z"/>
	</g>
	<line class="st14" x1="827.3" y1="230.5" x2="896.5" y2="230.5"/>
	<line class="st15" x1="896.5" y1="233.2" x2="827.5" y2="233.2"/>
	<line class="st15" x1="827.5" y1="236.3" x2="896.5" y2="236.3"/>
	<line class="st15" x1="896.6" y1="239" x2="827.6" y2="239"/>
	<line class="st14" x1="827.6" y1="242.1" x2="896.6" y2="242.1"/>
	<polygon class="st2" points="248.3,249.8 255.5,252 253.2,253.6 269.7,277.3 266.7,279.4 250.2,255.7 247.8,257.4 	"/>
	<path class="st3" d="M269.7,204.3c0,0-2.4-4.6-6.6-4.8"/>
	<path class="st3" d="M233,228.1c-0.3-1.8,0.9-4.3,0.9-4.3"/>
	<path class="st32" d="M1353.5,362.5c0,0,2,32-42,32c-114,0-27-230-144-230c-14,0-57.5-1.5-57.5,47.5"/>
	<path class="st32" d="M1113.5,207.5l-2.7,5.2c-0.4,0.5-1.2,0.5-1.5,0l-2.8-5.2"/>
	<path class="st9" d="M1353.8,221L1353.8,221c-2.7,0-4.9,2.2-4.9,4.9v1.9h9.7v-1.9C1358.7,223.2,1356.5,221,1353.8,221z"/>
	<path class="st3" d="M646.7,189.5v87.2h-11v-87.2c0,0,1.6-3.5,3.6-3.1c2.2,0.5,1.6,0.8,3.6,2.3C644.6,190,646.7,189.5,646.7,189.5z
		"/>
	<g>
		<path class="st13" d="M675.8,290.7c0,2-1.6,3.6-3.6,3.6h-61.8c-2,0-3.6-1.6-3.6-3.6v-12.6c0-2,1.6-3.6,3.6-3.6h61.8
			c2,0,3.6,1.6,3.6,3.6V290.7z"/>
		<path class="st14" d="M675.8,290.7c0,2-1.6,3.6-3.6,3.6h-61.8c-2,0-3.6-1.6-3.6-3.6v-12.6c0-2,1.6-3.6,3.6-3.6h61.8
			c2,0,3.6,1.6,3.6,3.6V290.7z"/>
	</g>
	<line class="st14" x1="606.6" y1="278.6" x2="675.8" y2="278.6"/>
	<line class="st15" x1="675.8" y1="281.3" x2="606.8" y2="281.3"/>
	<line class="st15" x1="606.8" y1="284.4" x2="675.8" y2="284.4"/>
	<line class="st15" x1="675.9" y1="287.1" x2="606.9" y2="287.1"/>
	<line class="st14" x1="606.9" y1="290.2" x2="675.9" y2="290.2"/>
	<line class="st45" x1="613.2" y1="296.2" x2="669.7" y2="296.2"/>
	<g>
		<circle class="st19" cx="618" cy="311" r="1"/>
		<circle class="st19" cx="634.5" cy="323.5" r="1.5"/>
		<circle class="st19" cx="659.5" cy="335.5" r="1.5"/>
		<circle class="st19" cx="666" cy="314" r="1"/>
		<circle class="st19" cx="630.5" cy="359.5" r="1.5"/>
		<circle class="st19" cx="620" cy="342" r="1"/>
		<circle class="st19" cx="661.5" cy="366.5" r="1.5"/>
		<circle class="st19" cx="668" cy="345" r="1"/>
		<circle class="st19" cx="618.5" cy="388.5" r="1.5"/>
	</g>
	<g>
		<circle class="st19" cx="842" cy="394" r="1"/>
		<circle class="st19" cx="849.5" cy="271.5" r="1.5"/>
		<circle class="st19" cx="875.5" cy="257.5" r="1.5"/>
		<circle class="st19" cx="887" cy="289" r="1"/>
		<circle class="st19" cx="884.5" cy="381.5" r="1.5"/>
		<circle class="st19" cx="839" cy="317" r="1"/>
		<circle class="st19" cx="880.5" cy="341.5" r="1.5"/>
		<circle class="st19" cx="887" cy="320" r="1"/>
		<circle class="st19" cx="837.5" cy="363.5" r="1.5"/>
	</g>
</g>
</svg>
